<?xml version="1.0" encoding="UTF-8"?>
<svg width="1639px" height="2243px" viewBox="0 0 1639 2243" version="1.1" xmlns="http://www.w3.org/2000/svg" xmlns:xlink="http://www.w3.org/1999/xlink">
    <!-- Generator: Sketch 47 (45396) - http://www.bohemiancoding.com/sketch -->
    <title>BackgroundImage</title>
    <desc>Created with Sketch.</desc>
    <defs>
        <rect id="path-1" x="0" y="0" width="1639" height="2243"></rect>
        <linearGradient x1="100%" y1="6.05075077%" x2="180.955675%" y2="6.05075077%" id="linearGradient-3">
            <stop stop-color="#009688" offset="0%"></stop>
            <stop stop-color="#E7ECEF" stop-opacity="0" offset="100%"></stop>
        </linearGradient>
        <linearGradient x1="44.6659283%" y1="22.0619999%" x2="28.9825608%" y2="74.2240453%" id="linearGradient-4">
            <stop stop-color="#009688" offset="0%"></stop>
            <stop stop-color="#E7ECEF" stop-opacity="0" offset="100%"></stop>
        </linearGradient>
        <linearGradient x1="67.4899022%" y1="84.9555603%" x2="67.4899042%" y2="45.6842683%" id="linearGradient-5">
            <stop stop-color="#009688" offset="0%"></stop>
            <stop stop-color="#E7ECEF" stop-opacity="0.711701766" offset="100%"></stop>
        </linearGradient>
    </defs>
    <g id="Page-1" stroke="none" stroke-width="1" fill="none" fill-rule="evenodd">
        <g id="BackgroundImage">
            <mask id="mask-2" fill="white">
                <use xlink:href="#path-1"></use>
            </mask>
            <use id="path-1" fill="#E7ECEF" xlink:href="#path-1"></use>
            <g id="Group" mask="url(#mask-2)" fill-rule="nonzero">
                <g transform="translate(-441.000000, -491.000000)">
                    <path d="M1281.46689,2487.88197 C1135.6263,2500.50196 978.144623,2497.31376 875.336815,2377.88875 C803.005115,2293.93256 767.82025,2162.41893 692.218581,2083.77643 C606.807012,1994.9051 465.413574,1959.17058 455.472871,1808.52769 C446.578554,1672.09889 564.820617,1553.20525 669.721198,1533.94316 C774.621786,1514.68106 874.682822,1557.32335 978.929411,1555.8621 C1228.4934,1552.4082 1470.86346,1301.20387 1720.95064,1292.17061 C1835.13794,1288.05251 1958.74274,1358.4588 1973.2614,1506.17917 C1985.03329,1625.20565 1922.38069,1758.18055 1947.36325,1871.36198 C1980.32454,2020.94214 2145.39254,2047.51055 2177.56903,2197.62207 C2204.38276,2322.62645 2116.74761,2469.28408 2017.86377,2518.96701 C1918.97993,2568.64994 1815.51812,2548.72363 1717.54988,2528.00027 C1717.54988,2527.86743 1427.30748,2475.26198 1281.46689,2487.88197 Z" id="BG_Shape-2" fill="url(#linearGradient-3)" opacity="0.25"></path>
                    <path d="M755.378509,1566.52222 C635.168369,1576.92435 505.362979,1574.29644 420.622916,1475.85953 C361.002999,1406.65805 332.001629,1298.257 269.686416,1233.43537 C199.285321,1160.18254 82.7407808,1130.72811 74.5470858,1006.55964 C67.2158838,894.107238 164.677738,796.108314 251.142789,780.231392 C337.607841,764.35447 420.083857,799.502691 506.00985,798.298235 C711.714737,795.451336 911.489976,588.394392 1117.62611,580.948659 C1211.74579,577.554282 1313.62793,635.587165 1325.59504,757.34673 C1335.2981,855.455154 1283.65626,965.060652 1304.24831,1058.35125 C1331.41688,1181.64376 1467.47535,1203.54296 1493.99705,1327.27345 C1516.09846,1430.30919 1443.86457,1551.19278 1362.35886,1592.14429 C1280.85315,1633.09579 1195.57403,1616.67139 1114.823,1599.59002 C1114.823,1599.48052 875.588651,1556.1201 755.378509,1566.52222 Z" id="BG_Shape-1" fill="url(#linearGradient-4)" opacity="0.420006793" transform="translate(786.093390, 1099.282319) rotate(63.000000) translate(-786.093390, -1099.282319) "></path>
                    <path d="M2057.65472,1344.69462 C1937.44457,1355.09673 1807.63919,1352.46883 1722.89912,1254.03192 C1663.27921,1184.83045 1634.27784,1076.4294 1571.96262,1011.60776 C1501.56153,938.354931 1385.01699,908.900508 1376.8233,784.73203 C1369.49209,672.279633 1466.95394,574.280705 1553.419,558.403785 C1639.88405,542.526863 1722.36006,577.675082 1808.28606,576.470626 C2013.99094,573.623729 2213.76618,366.566779 2419.90231,359.121051 C2514.02201,355.726674 2615.90414,413.759559 2627.87125,535.519119 C2637.57431,633.627542 2585.93246,743.233045 2606.52451,836.523644 C2633.69308,959.816151 2769.75156,981.715349 2796.27326,1105.44583 C2818.37467,1208.48158 2746.14078,1329.36517 2664.63506,1370.31668 C2583.12936,1411.26819 2497.85023,1394.84379 2417.09921,1377.76241 C2417.09921,1377.65291 2177.86486,1334.29249 2057.65472,1344.69462 Z" id="BG_Shape-3" fill="url(#linearGradient-5)" opacity="0.420006793" transform="translate(2088.369601, 877.454712) rotate(49.000000) translate(-2088.369601, -877.454712) "></path>
                </g>
            </g>
        </g>
    </g>
</svg>